<mxfile>
    <diagram>
        <mxGraphModel dx="320" dy="200" pageWidth="320" pageHeight="200">
            <root>
                <mxCell id="0">
                </mxCell>
                <mxCell id="1" vertex="1" parent="0" style = "fillColor=#008000;">
                    <mxGeometry x="30" y="127" width="40" height="53" as="geometry">
                    </mxGeometry>
                </mxCell>
                <mxCell id="2" vertex="1" parent="0" style = "fillColor=#000080;">
                    <mxGeometry x="30" y="21" width="40" height="106" as="geometry">
                    </mxGeometry>
                </mxCell>
                <mxCell id="3" vertex="1" parent="0" style = "fillColor=#008000;">
                    <mxGeometry x="80" y="154" width="40" height="26" as="geometry">
                    </mxGeometry>
                </mxCell>
                <mxCell id="4" vertex="1" parent="0" style = "fillColor=#000080;">
                    <mxGeometry x="80" y="74" width="40" height="80" as="geometry">
                    </mxGeometry>
                </mxCell>
                <mxCell id="5" vertex="1" parent="0" style = "fillColor=#008000;">
                    <mxGeometry x="130" y="170" width="40" height="10" as="geometry">
                    </mxGeometry>
                </mxCell>
                <mxCell id="6" vertex="1" parent="0" style = "fillColor=#000080;">
                    <mxGeometry x="130" y="117" width="40" height="53" as="geometry">
                    </mxGeometry>
                </mxCell>
                <mxCell id="7" vertex="1" parent="0" style = "fillColor=#800000;">
                    <mxGeometry x="130" y="37" width="40" height="80" as="geometry">
                    </mxGeometry>
                </mxCell>
                <mxCell id="8" vertex="1" parent="0" value="T1" style = "text=;strokeColor=none;">
                    <mxGeometry x="25" y="180" width="50" height="20" as="geometry">
                    </mxGeometry>
                </mxCell>
                <mxCell id="9" vertex="1" parent="0" value="T2" style = "text=;strokeColor=none;">
                    <mxGeometry x="75" y="180" width="50" height="20" as="geometry">
                    </mxGeometry>
                </mxCell>
                <mxCell id="10" vertex="1" parent="0" value="T3" style = "text=;strokeColor=none;">
                    <mxGeometry x="125" y="180" width="50" height="20" as="geometry">
                    </mxGeometry>
                </mxCell>
                <mxCell id="11" vertex="1" parent="0" value="Task Response Times" style = "text=;strokeColor=none;">
                    <mxGeometry x="0" y="0" width="200" height="20" as="geometry">
                    </mxGeometry>
                </mxCell>
                <mxCell id="12" vertex="1" parent="0" value="Legend" style = "text=;strokeColor=none;">
                    <mxGeometry x="200" y="0" width="100" height="20" as="geometry">
                    </mxGeometry>
                </mxCell>
                <mxCell id="13" vertex="1" parent="0" value="Preemption" style = "text=;strokeColor=none;">
                    <mxGeometry x="200" y="40" width="50" height="20" as="geometry">
                    </mxGeometry>
                </mxCell>
                <mxCell id="14" vertex="1" parent="0" style = "fillColor=#800000;">
                    <mxGeometry x="262" y="45" width="25" height="10" as="geometry">
                    </mxGeometry>
                </mxCell>
                <mxCell id="15" vertex="1" parent="0" value="Blocking" style = "text=;strokeColor=none;">
                    <mxGeometry x="200" y="60" width="50" height="20" as="geometry">
                    </mxGeometry>
                </mxCell>
                <mxCell id="16" vertex="1" parent="0" style = "fillColor=#000080;">
                    <mxGeometry x="262" y="65" width="25" height="10" as="geometry">
                    </mxGeometry>
                </mxCell>
                <mxCell id="17" vertex="1" parent="0" value="WCET" style = "text=;strokeColor=none;">
                    <mxGeometry x="200" y="80" width="50" height="20" as="geometry">
                    </mxGeometry>
                </mxCell>
                <mxCell id="18" vertex="1" parent="0" style = "fillColor=#008000;">
                    <mxGeometry x="262" y="85" width="25" height="10" as="geometry">
                    </mxGeometry>
                </mxCell>
            </root>
        </mxGraphModel>
    </diagram>
</mxfile>
